<?xml version="1.0" encoding="UTF-8"?>
<svg width="32px" height="24px" viewBox="0 0 32 24" version="1.1" xmlns="http://www.w3.org/2000/svg" xmlns:xlink="http://www.w3.org/1999/xlink">
    <!-- Generator: Sketch 42 (36781) - http://www.bohemiancoding.com/sketch -->
    <title>folder</title>
    <desc>Created with Sketch.</desc>
    <defs></defs>
    <g id="Page-1" stroke="none" stroke-width="1" fill="none" fill-rule="evenodd">
        <g id="landing-page-1a" transform="translate(-200.000000, -19.000000)">
            <g id="nav-narrow">
                <g id="folder" transform="translate(200.000000, 19.000000)">
                    <path d="M1.9047619,0.133731692 C0.84952381,0.133731692 1.90476189e-07,0.957116308 1.90476189e-07,1.97988554 L1.90476189e-07,7.14911631 L1.90476189e-07,15.2721969 L1.90476189e-07,21.9183508 C1.90476189e-07,22.94112 0.84952381,23.7645046 1.9047619,23.7645046 L30.0952381,23.7645046 C31.1504758,23.7645046 32,22.94112 32,21.9183508 L32,7.88758154 C32,6.86481231 31.1504758,6.04142769 30.0952381,6.04142769 L16.3809524,6.04142769 L14.0952381,1.97988923 C13.5899429,1.08199385 12.8647623,0.133735385 11.8095238,0.133735385 L1.9047619,0.133735385 L1.9047619,0.133731692 Z M15.8095238,3.08757785 L17.1428571,5.30296246 L30.7619048,5.30296246 C31.1717333,5.32807015 31.832152,5.58088246 32,5.67219323 C32,4.29145477 30.7579048,3.08757785 29.3333333,3.08757785 L15.8095238,3.08757785 Z M16.6414626,11.5832298 C16.9350247,11.5452837 17.2130509,11.8372771 17.1269597,12.102754 L15.3514274,17.9214275 C15.2879077,18.1322505 15.0234866,18.2691139 14.7965735,18.2136703 C14.5701931,18.1583514 14.4277955,17.9049482 14.4914039,17.6941461 L16.2669362,11.8754746 C16.3122791,11.7166436 16.4671497,11.6034081 16.6414626,11.5832319 L16.6414626,11.5832298 Z M12.6251148,12.3214896 C12.8148809,12.296428 13.014483,12.4238679 13.0754203,12.6107971 C13.1363785,12.7977285 13.0520729,13.0239942 12.8861554,13.1221525 L10.1125881,14.9118887 L12.8861554,16.6948858 C13.0724131,16.8146178 13.1393857,17.0950331 13.0232122,17.286979 C12.907018,17.4789894 12.6286023,17.5481028 12.4423863,17.4282847 L9.10106601,15.2752186 C8.81989391,15.0878372 8.85950944,14.6951611 9.10106601,14.5418197 L12.4423863,12.3887514 C12.4970796,12.3520417 12.5602307,12.3288101 12.6251148,12.3214896 Z M19.3096207,12.3186763 C19.3943954,12.3152295 19.4800489,12.3389262 19.5515386,12.3859747 L22.8990118,14.5402155 C23.1410132,14.6936404 23.1795717,15.0929716 22.8990118,15.2740138 L19.5515386,17.4282524 C19.3649795,17.5481358 19.0925791,17.4789847 18.9761916,17.2868697 C18.8597833,17.0948194 18.9203305,16.8142513 19.1069523,16.6944541 L21.8856271,14.910486 L19.1069523,13.1197752 C18.9523616,13.025161 18.8720223,12.8209392 18.9173387,12.6418121 C18.9626762,12.4626441 19.1298825,12.3236311 19.3096207,12.3186763 Z" id="Shape" fill="#05BC92"></path>
                    <path d="M15.8095238,3.08757785 L17.1428571,5.30296246 L30.7619048,5.30296246 C31.1717333,5.32807015 31.832152,5.58088246 32,5.67219323 C32,4.29145477 30.7579048,3.08757785 29.3333333,3.08757785 L15.8095238,3.08757785 Z" id="Path" fill="#87D5C3"></path>
                </g>
            </g>
        </g>
    </g>
</svg>